<svg width="50" height="50" xmlns="http://www.w3.org/2000/svg">

 <g>
  <title>background</title>
  <rect fill="none" id="canvas_background" height="402" width="582" y="-1" x="-1"/>
 </g>
 <g>
  <title>Layer 1</title>
  <rect id="svg_1" width="50" height="50" fill="none"/>
  <path fill="#9e9e9e" id="svg_2" d="m30.933,32.528c-0.146,-1.612 -0.09,-2.737 -0.09,-4.21c0.73,-0.383 2.038,-2.825 2.259,-4.888c0.574,-0.047 1.479,-0.607 1.744,-2.818c0.143,-1.187 -0.425,-1.855 -0.771,-2.065c0.934,-2.809 2.874,-11.499 -3.588,-12.397c-0.665,-1.168 -2.368,-1.759 -4.581,-1.759c-8.854,0.163 -9.922,6.686 -7.981,14.156c-0.345,0.21 -0.913,0.878 -0.771,2.065c0.266,2.211 1.17,2.771 1.744,2.818c0.22,2.062 1.58,4.505 2.312,4.888c0,1.473 0.055,2.598 -0.091,4.21c-1.752,4.71 -13.573,3.388 -14.119,12.472l38,0c-0.545,-9.084 -12.315,-7.762 -14.067,-12.472z"/>
 </g>
</svg>